<svg width="24" height="24" viewBox="0 0 24 24" fill="none" xmlns="http://www.w3.org/2000/svg">
<path d="M18.75 21.0001L18.75 12.0001C18.75 11.5901 19.09 11.2501 19.5 11.2501C19.91 11.2501 20.25 11.5901 20.25 12.0001V21.0001C20.25 21.4101 19.91 21.7501 19.5 21.7501C19.09 21.7501 18.75 21.4101 18.75 21.0001ZM13.75 21.0001L13.75 12.0001C13.75 11.5901 14.09 11.2501 14.5 11.2501C14.91 11.2501 15.25 11.5901 15.25 12.0001L15.25 21.0001C15.25 21.4101 14.91 21.7501 14.5 21.7501C14.09 21.7501 13.75 21.4101 13.75 21.0001ZM8.75 21.0001L8.75 3.00012C8.75 2.59012 9.09 2.25012 9.5 2.25012C9.91 2.25012 10.25 2.59012 10.25 3.00012L10.25 21.0001C10.25 21.4101 9.91 21.7501 9.5 21.7501C9.09 21.7501 8.75 21.4101 8.75 21.0001ZM3.75 21.0001L3.75 3.00012C3.75 2.59012 4.09 2.25012 4.5 2.25012C4.91 2.25012 5.25 2.59012 5.25 3.00012L5.25 21.0001C5.25 21.4101 4.91 21.7501 4.5 21.7501C4.09 21.7501 3.75 21.4101 3.75 21.0001Z" fill="black"/>
</svg>
